<svg width="50" height="49" viewBox="0 0 50 49" fill="none" xmlns="http://www.w3.org/2000/svg">
<g clip-path="url(#clip0_84_517)">
<path d="M29.6 24.4626C29.6 26.8373 27.6747 28.7626 25.3 28.7626C22.9253 28.7626 21 26.8373 21 24.4626C21 22.0879 22.9253 20.1626 25.3 20.1626C27.6747 20.1626 29.6 22.0879 29.6 24.4626Z" fill="#252525"/>
<path d="M32.5626 11.4663H18.038C14.8765 11.4663 12.3047 14.0381 12.3047 17.1997V31.7242C12.3047 34.8857 14.8765 37.4575 18.038 37.4575H32.5626C35.7241 37.4575 38.2959 34.8857 38.2959 31.7242V17.1997C38.2959 14.0381 35.7241 11.4663 32.5626 11.4663ZM25.3003 31.6286C21.3485 31.6286 18.1336 28.4137 18.1336 24.4619C18.1336 20.5102 21.3485 17.2952 25.3003 17.2952C29.2521 17.2952 32.467 20.5102 32.467 24.4619C32.467 28.4137 29.2521 31.6286 25.3003 31.6286ZM33.5181 17.6775C32.7264 17.6775 32.0848 17.0358 32.0848 16.2441C32.0848 15.4524 32.7264 14.8108 33.5181 14.8108C34.3098 14.8108 34.9515 15.4524 34.9515 16.2441C34.9515 17.0358 34.3098 17.6775 33.5181 17.6775Z" fill="#252525"/>
<path d="M36.8625 0H13.738C6.625 0 0.837891 5.78711 0.837891 12.9001V36.0246C0.837891 43.1376 6.625 48.9247 13.738 48.9247H36.8625C43.9755 48.9247 49.7626 43.1376 49.7626 36.0246V12.9001C49.7626 5.78711 43.9755 0 36.8625 0ZM41.1625 31.7246C41.1625 36.4666 37.3045 40.3246 32.5625 40.3246H18.038C13.296 40.3246 9.43793 36.4666 9.43793 31.7246V17.2001C9.43793 12.4581 13.296 8.60004 18.038 8.60004H32.5625C37.3045 8.60004 41.1625 12.4581 41.1625 17.2001V31.7246Z" fill="#252525"/>
</g>
<defs>
<clipPath id="clip0_84_517">
<rect width="48.9247" height="48.9247" fill="white" transform="translate(0.837891)"/>
</clipPath>
</defs>
</svg>
