<svg width="50" height="49" viewBox="0 0 50 49" fill="none" xmlns="http://www.w3.org/2000/svg">
<path d="M42.5324 0H6.95084C5.18144 0 3.48451 0.702893 2.23335 1.95405C0.98219 3.20521 0.279297 4.90214 0.279297 6.67155L0.279297 42.2531C0.279297 44.0225 0.98219 45.7195 2.23335 46.9706C3.48451 48.2218 5.18144 48.9247 6.95084 48.9247H42.5324C44.3018 48.9247 45.9988 48.2218 47.2499 46.9706C48.5011 45.7195 49.204 44.0225 49.204 42.2531V6.67155C49.204 4.90214 48.5011 3.20521 47.2499 1.95405C45.9988 0.702893 44.3018 0 42.5324 0ZM16.9582 38.7172C16.9585 38.8529 16.9321 38.9873 16.8805 39.1127C16.8288 39.2382 16.7529 39.3522 16.6571 39.4483C16.5613 39.5443 16.4475 39.6205 16.3222 39.6725C16.1969 39.7245 16.0625 39.7513 15.9269 39.7513H11.532C11.3961 39.7517 11.2614 39.7252 11.1358 39.6733C11.0102 39.6215 10.896 39.5453 10.7999 39.4492C10.7038 39.3531 10.6277 39.239 10.5759 39.1134C10.524 38.9878 10.4975 38.8531 10.4979 38.7172V20.2926C10.4979 20.0184 10.6068 19.7553 10.8008 19.5614C10.9947 19.3675 11.2577 19.2585 11.532 19.2585H15.9269C16.2006 19.2593 16.4629 19.3685 16.6563 19.5624C16.8496 19.7562 16.9582 20.0188 16.9582 20.2926V38.7172ZM13.728 17.5128C12.9033 17.5128 12.0972 17.2683 11.4115 16.8101C10.7257 16.3519 10.1913 15.7007 9.87571 14.9388C9.56011 14.1769 9.47754 13.3385 9.63843 12.5296C9.79932 11.7208 10.1964 10.9778 10.7796 10.3947C11.3627 9.81151 12.1057 9.41439 12.9146 9.2535C13.7234 9.09261 14.5618 9.17518 15.3237 9.49078C16.0856 9.80638 16.7368 10.3408 17.195 11.0265C17.6532 11.7122 17.8977 12.5184 17.8977 13.3431C17.8977 14.449 17.4584 15.5096 16.6765 16.2915C15.8945 17.0735 14.8339 17.5128 13.728 17.5128ZM39.9305 38.7895C39.9309 38.9144 39.9066 39.0382 39.8589 39.1537C39.8113 39.2693 39.7412 39.3742 39.6529 39.4626C39.5645 39.5509 39.4596 39.6209 39.3441 39.6686C39.2286 39.7162 39.1048 39.7406 38.9798 39.7402H34.2542C34.1292 39.7406 34.0054 39.7162 33.8899 39.6686C33.7744 39.6209 33.6694 39.5509 33.5811 39.4626C33.4927 39.3742 33.4227 39.2693 33.3751 39.1537C33.3274 39.0382 33.3031 38.9144 33.3035 38.7895V30.1582C33.3035 28.8683 33.6815 24.5096 29.9315 24.5096C27.0266 24.5096 26.4345 27.4923 26.3178 28.8322V38.8006C26.3178 39.0504 26.2196 39.2901 26.0443 39.468C25.869 39.6459 25.6307 39.7477 25.381 39.7513H20.8165C20.6918 39.7513 20.5683 39.7267 20.4532 39.6789C20.338 39.6311 20.2333 39.561 20.1453 39.4727C20.0572 39.3844 19.9875 39.2795 19.94 39.1642C19.8925 39.0489 19.8683 38.9253 19.8686 38.8006V20.212C19.8683 20.0873 19.8925 19.9637 19.94 19.8484C19.9875 19.7331 20.0572 19.6283 20.1453 19.5399C20.2333 19.4516 20.338 19.3815 20.4532 19.3337C20.5683 19.2859 20.6918 19.2613 20.8165 19.2613H25.381C25.6331 19.2613 25.875 19.3615 26.0532 19.5398C26.2315 19.7181 26.3317 19.9599 26.3317 20.212V21.8187C27.4103 20.1981 29.0086 18.9528 32.4195 18.9528C39.975 18.9528 39.925 26.0079 39.925 29.883L39.9305 38.7895Z" fill="#252525"/>
</svg>
