<svg width="70" height="81" viewBox="0 0 70 81" fill="none" xmlns="http://www.w3.org/2000/svg">
<path fill-rule="evenodd" clip-rule="evenodd" d="M4.69043 81V55.1147L16.7704 43.0347V47.4573C13.9118 50.3693 9.00508 55.2227 9.00508 55.2227C8.84372 55.384 8.73573 55.6 8.73573 55.7614C8.57437 56.1933 8.68237 56.624 9.00508 56.948C9.43705 57.38 10.1917 57.38 10.6224 56.948C12.1318 55.384 21.3544 45.408 21.8398 45.7307C22.0557 45.892 22.3251 46.1627 22.5411 46.432C22.8104 46.756 23.0264 47.1333 23.1344 47.6187H23.1878C23.5651 48.8053 23.3491 50.4227 21.7851 51.9867L16.6078 57.1094C16.4998 57.2174 16.3918 57.3787 16.3385 57.5413C16.2305 57.8107 16.2305 58.08 16.2851 58.5654C16.4464 59.5894 16.5011 60.5067 16.5011 61.3694C16.4477 64.5507 15.4224 69.1347 10.3531 70.6987C9.7064 70.9147 9.38242 71.5614 9.5984 72.1547C9.75976 72.7481 10.4077 73.072 11.001 72.9094C13.4824 72.1001 15.2077 70.8067 16.3397 69.2427C18.0117 70.4827 20.0064 71.1307 22.0557 71.1307H23.5117C23.7277 71.1307 23.8891 71.2387 23.9971 71.4C24.1051 71.5614 24.1051 71.7774 23.9971 71.9387C22.5944 74.5814 20.3838 76.3067 18.5504 76.7921V80.9441L4.69043 80.9975V81Z" fill="#99C2A4"/>
<path d="M66.5997 54.2521H22.7024L18.6037 58.3507C18.8197 59.8601 19.1424 63.8508 17.4717 67.4107C18.7663 68.3814 20.3303 68.9747 22.0557 68.9747H66.5997C66.9771 68.9747 67.3544 68.7587 67.5704 68.3814C67.7317 68.0574 67.6784 67.6267 67.4624 67.3027C66.2757 65.6854 65.629 63.744 65.629 61.6401C65.629 59.5361 66.2757 57.5961 67.4624 55.9774C67.6784 55.6534 67.7317 55.2227 67.5704 54.8454C67.3544 54.4681 66.9771 54.2521 66.5997 54.2521Z" fill="#99C2A4"/>
<path d="M45.7293 42.0094H38.9346V43.4654C38.9346 44.4361 39.7439 45.1374 40.8225 45.4601C41.3079 45.6215 41.8466 45.6761 42.3319 45.6761C42.8706 45.6761 43.4106 45.6227 43.8959 45.4601C44.9199 45.1361 45.7293 44.4894 45.7293 43.4654V42.0094Z" fill="#99C2A4"/>
<path d="M42.332 36.024H45.8907C46.376 33.9213 48.1014 31.548 49.7734 29.2293C50.2587 28.4746 50.7974 27.7199 51.1214 27.2346C51.7147 26.3719 52.2 25.4546 52.524 24.4306C52.7934 23.4599 52.956 22.3812 52.956 21.3026C52.956 18.3359 51.7693 15.6946 49.828 13.8066C47.94 11.8652 45.244 10.6786 42.332 10.6786C39.42 10.6786 36.724 11.8652 34.836 13.7519C32.8947 15.6933 31.708 18.3359 31.708 21.3013C31.708 22.38 31.8694 23.4586 32.14 24.4293C32.464 25.4533 32.9493 26.3706 33.5426 27.2333C33.8666 27.7187 34.4053 28.4733 34.8906 29.228C36.5626 31.5467 38.288 33.92 38.7733 36.0227H42.332V36.024Z" fill="#99C2A4"/>
<path d="M24.697 51.9867H68.8637C69.5104 51.9867 69.9424 51.5013 69.9424 50.908V1.07866C69.9424 0.485334 69.5104 0 68.8637 0H22.0544C20.005 0 18.1717 0.809314 16.8771 2.15732C15.529 3.50533 14.7197 5.33868 14.7197 7.33465V49.56C17.3624 46.864 20.113 44.1133 20.6517 43.6814L20.7597 43.628C21.4064 43.196 22.2691 43.304 23.133 43.844C23.565 44.168 23.9957 44.5987 24.3731 45.084C24.7504 45.5693 25.0744 46.216 25.2904 46.864L25.3437 46.9173C25.7757 48.3734 25.7757 50.1533 24.697 51.9867ZM43.5184 5.60803C43.5184 6.25471 42.9797 6.79468 42.3317 6.79468C41.6837 6.79468 41.145 6.25599 41.145 5.60803V2.80401C41.145 2.15732 41.6837 1.61736 42.3317 1.61736C42.9797 1.61736 43.5184 2.15605 43.5184 2.80401V5.60803ZM52.6317 33.328C52.1997 32.896 52.1997 32.1413 52.6317 31.656C53.117 31.224 53.8184 31.224 54.3037 31.656L56.2984 33.6507C56.7304 34.136 56.7304 34.8373 56.2984 35.3227C55.8131 35.7547 55.1117 35.7547 54.6264 35.3227L52.6317 33.328ZM58.0784 22.5414C57.4317 22.5414 56.8917 22.0027 56.8917 21.3547C56.8917 20.7068 57.4304 20.1681 58.0784 20.1681H60.8824C61.5291 20.1681 62.069 20.7068 62.069 21.3547C62.069 22.0027 61.5303 22.5414 60.8824 22.5414H58.0784ZM54.3037 11.0547C53.8717 11.4867 53.117 11.4867 52.6317 11.0547C52.1997 10.5694 52.1997 9.86804 52.6317 9.38271L54.6264 7.38801C55.1117 6.95604 55.8131 6.95604 56.2984 7.38801C56.7304 7.87334 56.7304 8.57466 56.2984 9.06L54.3037 11.0547ZM30.3597 31.656C30.845 31.224 31.5463 31.224 32.0317 31.656C32.4637 32.1413 32.4637 32.896 32.0317 33.328L30.037 35.3227C29.5516 35.7547 28.8503 35.7547 28.365 35.3227C27.933 34.8373 27.933 34.136 28.365 33.6507L30.3597 31.656ZM26.585 20.1693C27.2317 20.1693 27.7717 20.708 27.7717 21.356C27.7717 22.0039 27.233 22.5426 26.585 22.5426H23.781C23.1343 22.5426 22.5943 22.0039 22.5943 21.356C22.5943 20.708 23.133 20.1693 23.781 20.1693H26.585ZM32.0317 9.38398C32.4637 9.86931 32.4637 10.5706 32.0317 11.056C31.5463 11.4879 30.845 11.4879 30.3597 11.056L28.365 9.06127C27.933 8.57593 27.933 7.87461 28.365 7.38928C28.8503 6.95731 29.5516 6.95731 30.037 7.38928L32.0317 9.38398ZM46.053 38.3427H38.6104C38.125 38.3427 37.6397 38.1267 37.3157 37.8573C36.9384 37.5334 36.669 37.156 36.561 36.6707C36.2371 34.9987 34.6197 32.7334 33.0557 30.5773C32.6237 29.9306 32.193 29.3373 31.6531 28.528C30.8984 27.504 30.3584 26.3173 29.9811 25.076C29.6037 23.8894 29.3878 22.5947 29.3878 21.3013C29.3878 17.7427 30.8438 14.5067 33.2171 12.188C35.5357 9.81468 38.7717 8.35868 42.3304 8.35868C45.8891 8.35868 49.1251 9.81468 51.4438 12.188C53.8171 14.5067 55.2731 17.7427 55.2731 21.3013C55.2731 22.596 55.0571 23.8894 54.6798 25.076C54.3024 26.316 53.7625 27.5027 53.0078 28.528C52.4691 29.3373 52.0371 29.9306 51.6051 30.5773C50.0411 32.7347 48.4238 35 48.0998 36.6707C47.9918 37.156 47.7225 37.5334 47.3451 37.8573C47.0211 38.1267 46.5358 38.3427 46.0505 38.3427H46.053ZM38.7184 39.7453H45.945C46.5384 39.7453 47.0237 39.9613 47.401 40.3387C47.7784 40.716 48.0477 41.256 48.0477 41.7947V43.4666C48.0477 45.6773 46.4837 47.08 44.5424 47.6187C43.8411 47.8347 43.0864 47.9426 42.3317 47.9426C41.577 47.9426 40.8223 47.8347 40.1744 47.6187C38.1797 47.0253 36.6157 45.6773 36.6157 43.4666V41.7947C36.6157 41.256 36.885 40.716 37.2624 40.3387C37.6397 39.9613 38.125 39.7453 38.7184 39.7453Z" fill="#29434B"/>
<path d="M24.8057 72.7481C23.7271 74.6361 22.0551 76.3614 19.4124 77.3855V79.8121C19.4124 80.4588 18.8737 80.9441 18.2804 80.9441C17.6337 80.9441 17.0938 80.4588 17.0938 79.8121V76.5228C17.0938 76.0374 17.4177 75.6601 17.8484 75.4987H17.9018C20.5978 74.6894 22.1618 73.0174 23.0245 71.1307H23.8338C24.2111 71.1307 24.5885 71.3467 24.7511 71.6694C24.9671 71.9934 24.9671 72.4241 24.8045 72.7481H24.8057Z" fill="#29434B"/>
<path d="M2.26405 79.6521C2.26405 80.2988 1.77871 80.8387 1.13202 80.8387C0.538696 80.8387 0 80.3 0 79.6521V53.0121C0 52.6347 0.161355 52.3107 0.431973 52.0948L15.8013 36.9948C16.2333 36.5628 16.9333 36.5628 17.4187 36.9948C17.8506 37.4267 17.8506 38.1814 17.3653 38.6121L2.26532 53.4428V79.6521H2.26405Z" fill="#29434B"/>
</svg>
