<svg width="67" height="80" viewBox="0 0 67 80" fill="none" xmlns="http://www.w3.org/2000/svg">
<path d="M38.8632 28.097C38.4991 28.7251 37.8316 29.0892 37.1246 29.0892C36.4177 29.0892 35.7501 28.7251 35.386 28.097L29.8243 18.7335L27.9037 21.968C27.5396 22.5748 26.8721 22.9389 26.1651 22.9389H14.1133L32.2335 41.0804C32.9223 41.7479 34.0146 41.7479 34.6821 41.0804L52.8205 22.9389H41.9399L38.8663 28.097H38.8632Z" fill="#99C2A4"/>
<path d="M62.2987 14.8528H57.6868C58.5363 10.1406 56.6946 5.0432 52.1645 2.01203C47.1278 -1.30434 40.3736 -0.333399 36.1258 3.93268L33.4557 6.60277L30.5428 3.68995C25.0085 -1.83229 15.6237 -1.16477 11.036 5.73196C9.21548 8.48094 8.70877 11.7579 9.31561 14.8528H4.64295C3.5294 14.8528 2.61914 15.763 2.61914 16.8766C2.61914 17.9901 3.5294 18.9004 4.64295 18.9004H25.0085L28.0821 13.7635C28.8103 12.5286 30.8311 12.5286 31.5623 13.7635L37.124 23.127L39.0447 19.8926C39.4088 19.2857 40.0763 18.9004 40.7833 18.9004H62.2987C63.4123 18.9004 64.3225 17.9901 64.3225 16.8766C64.3225 15.763 63.4123 14.8528 62.2987 14.8528Z" fill="#99C2A4"/>
<path d="M26.9623 52.4737L16.1697 40.0304C15.6812 39.4691 14.9985 39.1293 14.2399 39.0716C13.4935 39.0231 12.7714 39.2719 12.2101 39.7695C11.2634 40.613 11.0055 41.9905 11.5789 43.1223L11.8824 43.717C13.5239 46.9393 15.4627 50.0463 17.6443 52.9561L19.5225 55.4684C19.8198 55.8659 19.9473 56.3574 19.8744 56.852C19.8047 57.3466 19.5467 57.7835 19.1462 58.0808C18.7457 58.3782 18.2542 58.5026 17.7596 58.4328C17.2681 58.363 16.8311 58.1021 16.5338 57.7016L14.6526 55.1923C12.3496 52.1187 10.2985 48.8266 8.55385 45.4131L8.25043 44.8184C6.90325 42.1756 7.51009 38.9563 9.72202 36.9841C9.89194 36.8354 10.0679 36.6928 10.2439 36.5684L6.31158 26.6223C5.85645 25.4784 4.74897 24.6561 3.52316 24.5651C2.59469 24.4893 1.70567 24.8018 1.02601 25.442C0.349388 26.0822 -0.0147153 26.947 0.000455665 27.8785L0.434346 53.5781C0.47379 55.9903 1.42956 58.2629 3.11658 59.9772L12.826 69.8687H29.2562L28.9497 57.38C28.8496 55.5807 28.1487 53.836 26.9654 52.4767L26.9623 52.4737Z" fill="#29434B"/>
<path d="M13.0332 78.9106C13.0332 79.5113 13.5217 79.9999 14.1225 79.9999H28.1708C28.7716 79.9999 29.257 79.5144 29.257 78.9136V73.4156H13.0332V78.9136V78.9106Z" fill="#29434B"/>
<path d="M65.9129 25.442C65.2332 24.8018 64.3442 24.4893 63.4157 24.5651C62.1899 24.6561 61.0824 25.4784 60.6273 26.6223L56.695 36.5684C56.871 36.6928 57.0439 36.8354 57.2169 36.9841C59.4318 38.9563 60.0356 42.1756 58.6885 44.8184L58.385 45.4131C56.6434 48.8266 54.5923 52.1187 52.2863 55.1923L50.4051 57.7016C50.1078 58.1021 49.6708 58.363 49.1793 58.4328C48.6847 58.5026 48.1932 58.3782 47.7927 58.0808C47.3921 57.7835 47.1342 57.3466 47.0645 56.852C46.9947 56.3574 47.1191 55.8689 47.4164 55.4684L49.2946 52.9561C51.4762 50.0463 53.412 46.9393 55.0565 43.717L55.3569 43.1223C55.9334 41.9905 55.6725 40.613 54.7258 39.7695C54.1675 39.2719 53.4454 39.0231 52.6959 39.0716C51.9374 39.1293 51.2547 39.4691 50.7662 40.0304L39.9735 52.4737C38.7902 53.836 38.0893 55.5776 37.9892 57.3769L37.6797 69.8657H54.1099L63.8193 59.9742C65.5063 58.2599 66.459 55.9873 66.5015 53.5751L66.9324 27.8754C66.9506 26.9439 66.5834 26.0792 65.9038 25.439L65.9129 25.442Z" fill="#29434B"/>
<path d="M37.6914 78.9136C37.6914 79.5144 38.1769 79.9998 38.7776 79.9998H52.826C53.4267 79.9998 53.9153 79.5113 53.9153 78.9106V73.4126H37.6914V78.9106V78.9136Z" fill="#29434B"/>
</svg>
