<svg width="73" height="81" viewBox="0 0 73 81" fill="none" xmlns="http://www.w3.org/2000/svg">
<path d="M12.5806 46.9178L8.18298 66.0524C8.11279 66.3545 8.07617 66.6719 8.07617 66.9557H16.7127L20.7379 49.5057L12.8461 47.0063C12.7576 46.9697 12.6691 46.9545 12.5806 46.9178Z" fill="#99C2A4"/>
<path d="M44.0535 26.9075C43.5652 25.0093 41.6335 23.8649 39.7353 24.3531L33.9033 25.8516L29.4508 20.0929C29.3135 19.9159 29.1578 19.748 28.9869 19.6015C27.8029 18.5578 26.3594 17.8376 24.8121 17.5111L18.1562 16.1164C16.1878 15.7014 14.1065 15.9547 12.2907 16.8275L4.39276 20.63C3.48333 21.0694 2.80279 21.8751 2.52203 22.8456L0.138598 31.1677C-0.401565 33.0507 0.684864 35.016 2.5678 35.5562C2.89434 35.6508 3.22393 35.6935 3.54742 35.6935C5.08856 35.6935 6.50763 34.6803 6.95319 33.1239L8.90632 26.3307L12.6936 24.5088L11.302 38.1227C11.0883 40.1277 12.3121 41.9893 14.2469 42.6088L25.9871 46.332L26.1641 58.481C26.1641 58.6947 26.1824 58.9052 26.2159 59.1005H34.6236C34.6602 58.8534 34.6754 58.6031 34.6754 58.3559L34.4466 43.1398C34.4282 41.3118 33.2228 39.7005 31.4863 39.1481L24.037 36.7891L26.158 27.4263L29.7224 32.0344C30.5891 33.1544 32.0387 33.6549 33.412 33.3009L41.5022 31.2227C43.4004 30.7374 44.5418 28.8026 44.0566 26.9044L44.0535 26.9075Z" fill="#99C2A4"/>
<path d="M7.25513 70.5142H17.4175C18.0553 70.5142 18.5711 71.0299 18.5711 71.6677V79.8465C18.5711 80.4843 18.0523 81 17.4175 81H7.25513C6.61731 81 6.10156 80.4843 6.10156 79.8465V71.6677C6.10156 71.0299 6.62036 70.5142 7.25513 70.5142Z" fill="#29434B"/>
<path d="M25.3391 62.6559H35.5015C36.1393 62.6559 36.6581 63.1747 36.6581 63.8125V79.8465C36.6581 80.4843 36.1393 81.0001 35.5045 81.0001H25.3422C24.7043 81.0001 24.1855 80.4813 24.1855 79.8434V63.8095C24.1855 63.1716 24.7043 62.6559 25.3391 62.6559Z" fill="#29434B"/>
<path d="M43.4251 54.8007H53.5874C54.2253 54.8007 54.741 55.3164 54.741 55.9542V79.8435C54.741 80.4813 54.2222 80.997 53.5874 80.997H43.4251C42.7872 80.997 42.2715 80.4813 42.2715 79.8435V55.9542C42.2715 55.3164 42.7903 54.8007 43.4251 54.8007Z" fill="#29434B"/>
<path d="M61.5099 47.0613H71.6723C72.3101 47.0613 72.8289 47.5801 72.8289 48.2179V79.8464C72.8289 80.4842 72.3101 81 71.6753 81H61.5129C60.8751 81 60.3594 80.4842 60.3594 79.8464V48.2179C60.3594 47.5801 60.8782 47.0643 61.5129 47.0643L61.5099 47.0613Z" fill="#29434B"/>
<path d="M24.3787 14.9292C28.5013 14.9292 31.8433 11.5872 31.8433 7.46462C31.8433 3.34202 28.5013 0 24.3787 0C20.2561 0 16.9141 3.34202 16.9141 7.46462C16.9141 11.5872 20.2561 14.9292 24.3787 14.9292Z" fill="#99C2A4"/>
</svg>
