<svg width="74" height="56" viewBox="0 0 74 56" fill="none" xmlns="http://www.w3.org/2000/svg">
<path fill-rule="evenodd" clip-rule="evenodd" d="M43.9315 42.4043C43.5437 42.4043 43.2293 42.0899 43.2293 41.7021V28.9024H1.40433V41.7021C1.40433 42.0899 1.08989 42.4043 0.702166 42.4043C0.314438 42.4043 0 42.0899 0 41.7021V28.2002C0 27.8125 0.314438 27.498 0.702166 27.498H43.9315C44.3192 27.498 44.6336 27.8125 44.6336 28.2002V41.7021C44.6336 42.0899 44.3192 42.4043 43.9315 42.4043Z" fill="black"/>
<path fill-rule="evenodd" clip-rule="evenodd" d="M11.543 28.9026C11.1553 28.9026 10.8408 28.5881 10.8408 28.2004V22.7107H5.30863V28.2004C5.30863 28.5881 4.99419 28.9026 4.60646 28.9026C4.21873 28.9026 3.9043 28.5881 3.9043 28.2004V22.0086C3.9043 21.6185 4.21873 21.3064 4.60646 21.3064H11.543C11.9307 21.3064 12.2452 21.6185 12.2452 22.0086V28.2004C12.2452 28.5881 11.9307 28.9026 11.543 28.9026Z" fill="black"/>
<path fill-rule="evenodd" clip-rule="evenodd" d="M25.7872 28.9026C25.3994 28.9026 25.085 28.5881 25.085 28.2004V22.7107H19.5528V28.2004C19.5528 28.5881 19.2383 28.9026 18.8506 28.9026C18.4629 28.9026 18.1484 28.5881 18.1484 28.2004V22.0086C18.1484 21.6185 18.4629 21.3064 18.8506 21.3064H25.7872C26.1749 21.3064 26.4893 21.6185 26.4893 22.0086V28.2004C26.4893 28.5881 26.1749 28.9026 25.7872 28.9026Z" fill="black"/>
<path fill-rule="evenodd" clip-rule="evenodd" d="M40.0313 28.9026C39.6436 28.9026 39.3291 28.5881 39.3291 28.2004V22.7107H33.7969V28.2004C33.7969 28.5881 33.4825 28.9026 33.0947 28.9026C32.707 28.9026 32.3926 28.5881 32.3926 28.2004V22.0086C32.3926 21.6185 32.707 21.3064 33.0947 21.3064H40.0313C40.419 21.3064 40.7335 21.6185 40.7335 22.0086V28.2004C40.7335 28.5881 40.419 28.9026 40.0313 28.9026Z" fill="black"/>
<path fill-rule="evenodd" clip-rule="evenodd" d="M1.40628 54.5017H43.2313V42.4041H1.40628V54.5017ZM43.9311 55.906H0.704119C0.316391 55.906 0.00195312 55.5916 0.00195312 55.2038V41.7019C0.00195312 41.3142 0.316391 40.9998 0.704119 40.9998H43.9334C44.3212 40.9998 44.6356 41.3142 44.6356 41.7019V55.2038C44.6356 55.5916 44.3212 55.906 43.9334 55.906H43.9311Z" fill="black"/>
<path fill-rule="evenodd" clip-rule="evenodd" d="M72.5753 55.906H43.9307C43.543 55.906 43.2285 55.5916 43.2285 55.2038C43.2285 54.8161 43.543 54.5017 43.9307 54.5017H71.8731V42.4041H43.9307C43.543 42.4041 43.2285 42.0896 43.2285 41.7019C43.2285 41.3142 43.543 40.9998 43.9307 40.9998H72.5753C72.963 40.9998 73.2774 41.3142 73.2774 41.7019V55.2038C73.2774 55.5916 72.963 55.906 72.5753 55.906Z" fill="black"/>
<path fill-rule="evenodd" clip-rule="evenodd" d="M54.6016 42.4042C54.2139 42.4042 53.8994 42.0897 53.8994 41.702V36.21H48.3672V41.702C48.3672 42.0897 48.0528 42.4042 47.6651 42.4042C47.2773 42.4042 46.9629 42.0897 46.9629 41.702V35.5078C46.9629 35.1201 47.2773 34.8057 47.6651 34.8057H54.6016C54.9893 34.8057 55.3038 35.1201 55.3038 35.5078V41.702C55.3038 42.0897 54.9893 42.4042 54.6016 42.4042Z" fill="black"/>
<path fill-rule="evenodd" clip-rule="evenodd" d="M68.8457 42.4042C68.458 42.4042 68.1436 42.0897 68.1436 41.702V36.21H62.6114V41.702C62.6114 42.0897 62.2969 42.4042 61.9092 42.4042C61.5215 42.4042 61.207 42.0897 61.207 41.702V35.5078C61.207 35.1201 61.5215 34.8057 61.9092 34.8057H68.8457C69.2335 34.8057 69.5479 35.1201 69.5479 35.5078V41.702C69.5479 42.0897 69.2335 42.4042 68.8457 42.4042Z" fill="black"/>
<path fill-rule="evenodd" clip-rule="evenodd" d="M40.0301 28.9023H33.0936H25.7858H18.8493H11.5416H4.60501H1.40625V40.9999H43.2312V28.9023H40.0301Z" fill="#29434B"/>
<path fill-rule="evenodd" clip-rule="evenodd" d="M43.2312 42.4043H1.40625V54.5019H43.2312V42.4043Z" fill="#29434B"/>
<path fill-rule="evenodd" clip-rule="evenodd" d="M44.6328 42.4043V54.5019H71.8731V42.4043H68.8445H61.908H54.6003H47.6637H44.6328Z" fill="#29434B"/>
<path fill-rule="evenodd" clip-rule="evenodd" d="M54.6003 7.59852C54.2125 7.59852 53.8981 7.28408 53.8981 6.89636V6.19419H48.3659V6.89636C48.3659 7.28408 48.0514 7.59852 47.6637 7.59852H54.6003ZM61.908 7.59852H54.6003C54.988 7.59852 55.3024 7.28408 55.3024 6.89636V0.702166C55.3024 0.314438 54.988 0 54.6003 0H47.6637C47.276 0 46.9615 0.314438 46.9615 0.702166V6.89636C46.9615 7.28408 47.276 7.59852 47.6637 7.59852H44.6328V19.6961H71.8731V7.59852H68.8422C68.4544 7.59852 68.14 7.28408 68.14 6.89636V6.19419H62.6078V6.89636C62.6078 7.28408 62.2933 7.59852 61.9056 7.59852H61.908ZM53.8981 1.40433V6.19419H48.3659V1.40433H53.8981Z" fill="#A5D6A7"/>
<path fill-rule="evenodd" clip-rule="evenodd" d="M44.6324 7.59867V19.6963H71.8727V7.59867H44.6324ZM43.2305 20.3984V6.8965C43.2305 6.50877 43.5449 6.19434 43.9326 6.19434H72.5772C72.9649 6.19434 73.2794 6.50877 73.2794 6.8965V20.3984C73.2794 20.7861 72.9649 21.1006 72.5772 21.1006H43.9326C43.5449 21.1006 43.2305 20.7861 43.2305 20.3984Z" fill="black"/>
<path fill-rule="evenodd" clip-rule="evenodd" d="M46.9609 6.89636V0.702166C46.9609 0.314438 47.2754 0 47.6631 0H54.5997C54.9874 0 55.3018 0.314438 55.3018 0.702166V6.89636C55.3018 7.28408 54.9874 7.59852 54.5997 7.59852C54.2119 7.59852 53.8975 7.28408 53.8975 6.89636V1.40433H48.3653V6.89636C48.3653 7.28408 48.0508 7.59852 47.6631 7.59852C47.2754 7.59852 46.9609 7.28408 46.9609 6.89636Z" fill="black"/>
<path fill-rule="evenodd" clip-rule="evenodd" d="M61.207 6.89636V0.702166C61.207 0.314438 61.5215 0 61.9092 0H68.8457C69.2335 0 69.5479 0.314438 69.5479 0.702166V6.89636C69.5479 7.28408 69.2335 7.59852 68.8457 7.59852C68.458 7.59852 68.1436 7.28408 68.1436 6.89636V1.40433H62.6114V6.89636C62.6114 7.28408 62.2969 7.59852 61.9092 7.59852C61.5215 7.59852 61.207 7.28408 61.207 6.89636Z" fill="black"/>
<path fill-rule="evenodd" clip-rule="evenodd" d="M48.3652 1.4043V6.19416H53.8974V1.4043H48.3652Z" fill="#A5D6A7"/>
<path fill-rule="evenodd" clip-rule="evenodd" d="M62.6094 1.4043V6.19416H68.1416V1.4043H62.6094Z" fill="#A5D6A7"/>
<path fill-rule="evenodd" clip-rule="evenodd" d="M53.8994 36.2102H48.3672V41.0001H53.8994V36.2102Z" fill="#29434B"/>
<path fill-rule="evenodd" clip-rule="evenodd" d="M62.6113 36.2102V41.0001H68.1435V36.2102H62.6113Z" fill="#29434B"/>
<path fill-rule="evenodd" clip-rule="evenodd" d="M39.3291 27.4979L39.3315 22.7104H33.7969V27.4979H39.3291Z" fill="#29434B"/>
<path fill-rule="evenodd" clip-rule="evenodd" d="M25.0849 27.4979V22.7104H19.5527V27.4979H25.0849Z" fill="#29434B"/>
<path fill-rule="evenodd" clip-rule="evenodd" d="M10.8408 27.4979V22.7104H5.30859V27.4979H10.8408Z" fill="#29434B"/>
</svg>
