<svg width="77" height="67" viewBox="0 0 77 67" fill="none" xmlns="http://www.w3.org/2000/svg">
<path d="M41.4784 0.0545428C44.5403 -0.212671 47.5057 0.918466 49.7258 3.00193C50.6761 2.48357 51.4135 1.68394 52.3859 1.18568C59.7654 -2.58946 68.3323 3.14859 67.826 11.3619C67.4081 18.1527 60.4525 26.1048 54.8812 29.5485C50.5676 32.2146 48.446 31.9876 44.3193 29.1567C39.6601 25.9622 33.7794 19.3241 32.2967 13.809C30.5166 7.201 34.5228 0.659289 41.4784 0.0545428Z" fill="#99C2A4"/>
<path d="M76.9992 43.6225V44.6753L76.4487 45.2539C65.0269 52.2416 53.8602 59.6814 42.3418 66.4903C40.7325 67.0047 39.3724 66.8078 37.8434 66.1608L19.5403 55.5888C19.2229 55.3839 17.7441 55.6752 17.7441 55.2794V34.2238C17.7441 34.2077 17.9531 33.9988 17.9692 33.9988H30.6025C31.2776 33.9988 32.461 34.5131 33.0878 34.8225C35.9207 36.2269 40.0575 38.6479 42.6975 40.4019C48.8795 44.5165 44.0295 52.1392 38.4924 49.5695C35.5651 48.2113 32.6016 45.4407 29.6301 43.9942C27.0584 43.3131 25.5697 46.2062 27.5989 47.8296C30.4438 49.4329 33.1943 51.6851 36.0453 53.2181C42.5267 56.6999 49.2633 52.5269 50.075 45.499C50.1373 44.9666 49.9162 43.8897 50.2257 43.5441C53.4282 42.0152 56.4801 40.0663 59.6987 38.5796C66.3207 35.5197 73.1719 37.4585 76.9972 43.6225H76.9992Z" fill="#29434B"/>
<path d="M12.7298 27.7342C12.9167 27.909 13.0975 28.2706 13.2441 28.4977C13.5214 39.4715 13.3848 50.5237 13.3125 61.5236C12.9046 62.4699 12.2295 63.0325 11.1868 63.1571C9.14754 63.3981 4.56272 63.36 2.47524 63.1791C1.20547 63.0686 0.156712 62.5282 0 61.1439L0.064292 28.7247C0.323469 27.7744 1.23963 27.1817 2.1799 27.0812C4.19103 26.8642 9.19375 26.8622 11.2049 27.0812C11.6951 27.1355 12.3742 27.4007 12.7318 27.7362L12.7298 27.7342Z" fill="#29434B"/>
</svg>
