<svg width="62" height="58" viewBox="0 0 62 58" fill="none" xmlns="http://www.w3.org/2000/svg">
<path d="M30.9446 6.0223L18.7183 18.152C17.8759 18.969 17.4535 20.0553 17.4535 21.1415C17.4535 22.2278 17.8578 23.2657 18.6701 24.078C20.2511 25.647 22.7736 25.7073 24.4151 24.2108L31.9101 17.4157L34.8067 20.3124L50.2325 35.784L51.1969 36.7508C52.5124 38.0663 52.5124 40.2147 51.1969 41.5302C49.9586 42.7577 47.9321 42.8289 46.5985 41.7644L48.3002 43.5096C49.6158 44.8251 49.6158 46.9735 48.3002 48.289C46.9762 49.613 44.7651 49.6167 43.4484 48.3132L43.4725 48.3373C44.7881 49.6529 44.7881 51.8012 43.4725 53.1168C42.1569 54.4323 40.0086 54.4323 38.6931 53.1168L37.0046 51.4705C38.0317 52.8126 37.9279 54.7992 36.7137 56.0134C35.3981 57.329 33.2498 57.329 31.9342 56.0134L30.9446 55.0358L30.9385 55.0297C32.236 53.713 32.2299 51.5779 30.9204 50.2684C29.7219 49.0808 27.7872 48.9758 26.4548 49.9329L29.0497 47.3597L29.9549 46.37C31.2704 45.0545 31.2704 42.9061 29.9549 41.5906C28.6538 40.2895 26.4946 40.2629 25.1706 41.5025L28.0238 38.6336C29.3393 37.318 29.3393 35.1697 28.0238 33.8541C26.7082 32.5386 24.5599 32.5386 23.2443 33.8541L20.4467 36.6434C21.6258 35.3145 21.58 33.2036 20.2994 31.923C19.0189 30.6425 16.8355 30.6075 15.52 31.923L11.6783 35.7937L11.5612 35.6766L5.85245 29.992C2.60581 26.7574 0.964378 22.509 1.00059 18.2606C1.03679 14.0967 2.67822 9.95689 5.85245 6.78266L6.35936 6.27575C9.67842 2.95669 13.9872 1.09802 18.3201 1.00146C22.0736 0.929046 27.7824 3.56016 30.9446 5.94988L30.9808 5.9885C30.9687 5.99937 30.9566 6.01143 30.9446 6.0223Z" fill="#A5D6A7"/>
<path d="M25.1708 41.5024L19.3583 47.3476L18.4893 48.3011C18.4748 48.3156 18.4603 48.3288 18.4458 48.3421C17.1254 49.6166 14.9385 49.6021 13.6253 48.289C12.3098 46.9734 12.3098 44.8251 13.6253 43.5095L15.5444 41.5748L19.3945 37.6921L20.4469 36.6433L23.2446 33.8541C24.5601 32.5385 26.7085 32.5385 28.024 33.8541C29.3396 35.1697 29.3396 37.318 28.024 38.6335L25.1708 41.5024Z" stroke="#29434B" stroke-width="1.93109" stroke-linecap="round" stroke-linejoin="round"/>
<path d="M25.0916 41.5785C25.1181 41.5519 25.1435 41.5266 25.1712 41.5024C26.4952 40.2629 28.6544 40.2894 29.9555 41.5905C31.2711 42.9061 31.2711 45.0544 29.9555 46.37L29.0503 47.3597L26.4554 49.9328L24.9697 51.4065L23.2329 53.1288C21.9174 54.4443 19.769 54.4443 18.4535 53.1288C17.1379 51.8132 17.1379 49.6649 18.4535 48.3493" stroke="#29434B" stroke-width="1.93109" stroke-linecap="round" stroke-linejoin="round"/>
<path d="M20.3119 36.787C20.359 36.7399 20.4036 36.6928 20.4471 36.6434C21.6262 35.3145 21.5804 33.2036 20.2998 31.923C19.0193 30.6425 16.8359 30.6075 15.5204 31.923L11.6787 35.7937L10.7289 36.7508C9.4133 38.0663 9.4133 40.2147 10.7289 41.5302C12.0444 42.8458 14.2109 42.8337 15.5445 41.5749C15.565 41.5568 15.5843 41.5375 15.6049 41.5182" stroke="#29434B" stroke-width="1.93109" stroke-linecap="round" stroke-linejoin="round"/>
<path d="M26.0444 50.2804C26.1724 50.1525 26.31 50.0354 26.4548 49.9328C27.7873 48.9757 29.722 49.0807 30.9204 50.2684C32.23 51.5779 32.236 53.7129 30.9385 55.0297L30.9204 55.0478L29.9911 56.0134C28.6756 57.3289 26.5272 57.3289 25.2117 56.0134C23.9782 54.7799 23.8901 52.7498 24.9691 51.4065C25.0415 51.3184 25.1175 51.2315 25.1996 51.1494" stroke="#29434B" stroke-width="1.93109" stroke-linecap="round" stroke-linejoin="round"/>
<path d="M43.4352 48.3011L41.5645 46.3821" stroke="#29434B" stroke-width="1.93109" stroke-linecap="round" stroke-linejoin="round"/>
<path d="M36.7383 51.2099L37.005 51.4706L38.6935 53.1168C40.0091 54.4324 42.1574 54.4324 43.473 53.1168C44.7885 51.8013 44.7885 49.6529 43.473 48.3374L43.4488 48.3132" stroke="#29434B" stroke-width="1.93109" stroke-linecap="round" stroke-linejoin="round"/>
<path d="M43.4355 48.3009L43.4476 48.313C44.7644 49.6165 46.9755 49.6129 48.2995 48.2889C49.615 46.9733 49.615 44.825 48.2995 43.5094L46.5977 41.7642L46.3925 41.5542" stroke="#29434B" stroke-width="1.93109" stroke-linecap="round" stroke-linejoin="round"/>
<path d="M46.3205 41.518C46.4086 41.6061 46.5015 41.6894 46.5981 41.7642C47.9318 42.8288 49.9582 42.7575 51.1965 41.5301C52.5121 40.2145 52.5121 38.0662 51.1965 36.7506L50.2322 35.7839M50.2322 35.7839L34.8064 20.3122L31.9098 17.4156L24.4147 24.2106C22.7733 25.7072 20.2508 25.6469 18.6697 24.0779C17.8574 23.2656 17.4531 22.2035 17.4531 21.1414C17.4531 20.0793 17.8756 18.9689 18.718 18.1518L30.9442 6.02218C30.9563 6.01131 30.9683 5.99924 30.9804 5.98838C34.3924 2.73932 39.0825 0.965134 43.4601 1.01341C47.8533 1.06169 52.2224 2.9445 55.5656 6.2877L56.0725 6.79461C59.283 10.005 60.8761 14.2052 60.8761 18.4053C60.8761 22.6054 59.2709 26.8055 56.0725 30.016L50.2322 35.7839Z" stroke="#29434B" stroke-width="1.93109" stroke-linecap="round" stroke-linejoin="round"/>
<path d="M30.9453 55.0357L31.935 56.0133C33.2505 57.3289 35.3989 57.3289 36.7144 56.0133C37.9286 54.7992 38.0324 52.8126 37.0053 51.4705C36.9208 51.3582 36.8279 51.2508 36.7265 51.1494" stroke="#29434B" stroke-width="1.93109" stroke-linecap="round" stroke-linejoin="round"/>
<path d="M30.9446 5.94988C27.7824 3.56016 22.0736 0.929046 18.3201 1.00146C13.9872 1.09802 9.67842 2.95669 6.35936 6.27575L5.85245 6.78266C2.67822 9.95689 1.03679 14.0967 1.00059 18.2606C0.964378 22.509 2.60581 26.7574 5.85245 29.992L11.5612 35.6766" stroke="#29434B" stroke-width="1.93109" stroke-linecap="round" stroke-linejoin="round"/>
</svg>
