<svg width="49" height="49" viewBox="0 0 49 49" fill="none" xmlns="http://www.w3.org/2000/svg">
<path d="M26.098 23.6279L37.1078 39.3759H32.5894L23.6051 26.5255V26.5247L22.2861 24.6383L11.791 9.62598H16.3095L24.779 21.7415L26.098 23.6279Z" fill="#252525"/>
<path d="M43.6383 0H5.28642C2.36689 0 0 2.36689 0 5.28642V43.6383C0 46.5578 2.36689 48.9247 5.28642 48.9247H43.6383C46.5578 48.9247 48.9247 46.5578 48.9247 43.6383V5.28642C48.9247 2.36689 46.5578 0 43.6383 0ZM31.2057 41.4891L22.1142 28.2575L10.7315 41.4891H7.78967L20.8079 26.3571L7.78967 7.41048H17.719L26.328 19.9399L37.1066 7.41048H40.0485L27.6347 21.8407H27.6339L41.135 41.4891H31.2057Z" fill="#252525"/>
</svg>
