<svg width="50" height="49" viewBox="0 0 50 49" fill="none" xmlns="http://www.w3.org/2000/svg">
<path d="M21.4355 19.6445V28.5752L29.6673 24.1487L21.4355 19.6445Z" fill="#252525"/>
<path d="M36.7738 0H12.3503C5.63288 0 0.119141 5.51373 0.119141 12.27V36.6935C0.119141 43.4109 5.63288 48.9247 12.3503 48.9247H36.7738C43.5301 48.9247 49.0438 43.4109 49.0438 36.6547V12.27C49.0438 5.51373 43.5301 0 36.7738 0ZM39.7248 25.666C39.7248 28.2288 39.4919 30.8303 39.4919 30.8303C39.4919 30.8303 39.2201 33.0047 38.327 33.9755C37.1621 35.2568 35.8808 35.2568 35.2983 35.3345C31.0271 35.6451 24.6203 35.684 24.6203 35.684C24.6203 35.684 16.6603 35.5675 14.2141 35.3345C13.554 35.218 12.0008 35.2568 10.836 33.9755C9.90408 33.0047 9.6711 30.8303 9.6711 30.8303C9.6711 30.8303 9.43813 28.2288 9.43813 25.666V23.2586C9.43813 20.6959 9.6711 18.0944 9.6711 18.0944C9.6711 18.0944 9.94291 15.9199 10.836 14.9492C12.0008 13.6678 13.2822 13.629 13.8646 13.5514C18.1747 13.2407 24.5815 13.2019 24.5815 13.2019C24.5815 13.2019 30.9883 13.2407 35.2595 13.5514C35.8419 13.629 37.1621 13.6678 38.327 14.9104C39.2589 15.8811 39.4919 18.0944 39.4919 18.0944C39.4919 18.0944 39.7248 20.6959 39.7248 23.2586V25.666Z" fill="#252525"/>
</svg>
